<svg width="600" height="200" viewBox="0 0 600 200" fill="none" xmlns="http://www.w3.org/2000/svg">
<ellipse cx="87.3823" cy="99.0964" rx="87.3823" ry="99.0964" fill="#67AD33"/>
<ellipse cx="89.9022" cy="99.9266" rx="50.4686" ry="56.7174" transform="rotate(1.56358 89.9022 99.9266)" fill="#F7F7F7"/>
<ellipse cx="135.5" cy="155" rx="18.5" ry="19" fill="#F7F7F7"/>
<ellipse cx="160.157" cy="181.626" rx="16.2016" ry="18.3735" fill="#67AD33"/>
<path d="M147.534 165.377V169.362H131.107V165.377H147.534ZM147.31 143.58V147.597H131.799V143.58H147.31ZM142.889 155.768V156.822L133.29 169.362H129.232V167.146L137.861 156.311L129.232 145.807V143.58H133.29L142.889 155.768Z" fill="#67AD33"/>
<path d="M164.404 175.889V179.725H154.081V175.889H164.404ZM156.244 171.969H161.453V187.107C161.453 187.427 161.503 187.686 161.603 187.885C161.709 188.077 161.862 188.215 162.061 188.301C162.26 188.379 162.497 188.418 162.774 188.418C162.973 188.418 163.183 188.4 163.403 188.365C163.63 188.322 163.801 188.286 163.914 188.258L164.703 192.019C164.454 192.09 164.103 192.178 163.648 192.285C163.201 192.392 162.664 192.459 162.039 192.487C160.818 192.544 159.77 192.402 158.897 192.061C158.03 191.713 157.366 191.173 156.904 190.442C156.45 189.71 156.23 188.791 156.244 187.683V171.969Z" fill="#F5F5F5"/>
<g filter="url(#filter0_d_18_36)">
<path d="M206.51 104.131H213.612L216.631 107.984L220.59 112.529L226.68 120.04H218.726L214.464 114.944L211.943 111.322L206.51 104.131ZM226.929 99.0174C226.929 103.018 226.16 106.41 224.621 109.191C223.082 111.973 220.999 114.086 218.371 115.53C215.755 116.974 212.819 117.696 209.564 117.696C206.297 117.696 203.355 116.968 200.739 115.512C198.123 114.056 196.046 111.944 194.507 109.174C192.98 106.392 192.217 103.007 192.217 99.0174C192.217 95.0165 192.98 91.6251 194.507 88.8434C196.046 86.0617 198.123 83.9487 200.739 82.5046C203.355 81.0605 206.297 80.3384 209.564 80.3384C212.819 80.3384 215.755 81.0605 218.371 82.5046C220.999 83.9487 223.082 86.0617 224.621 88.8434C226.16 91.6251 226.929 95.0165 226.929 99.0174ZM217.945 99.0174C217.945 96.65 217.607 94.6495 216.932 93.016C216.27 91.3825 215.311 90.1455 214.056 89.305C212.813 88.4646 211.316 88.0444 209.564 88.0444C207.824 88.0444 206.326 88.4646 205.072 89.305C203.817 90.1455 202.852 91.3825 202.178 93.016C201.515 94.6495 201.183 96.65 201.183 99.0174C201.183 101.385 201.515 103.385 202.178 105.019C202.852 106.652 203.817 107.889 205.072 108.73C206.326 109.57 207.824 109.99 209.564 109.99C211.316 109.99 212.813 109.57 214.056 108.73C215.311 107.889 216.27 106.652 216.932 105.019C217.607 103.385 217.945 101.385 217.945 99.0174ZM254.286 117.75C251.729 117.75 249.522 117.294 247.663 116.382C245.817 115.471 244.396 114.246 243.402 112.707C242.407 111.156 241.91 109.434 241.91 107.54C241.91 106.143 242.183 104.912 242.727 103.847C243.283 102.77 244.047 101.781 245.018 100.882C246 99.9703 247.142 99.0766 248.444 98.2006L256.079 93.3178C256.943 92.7733 257.553 92.1992 257.908 91.5955C258.275 90.9918 258.459 90.3881 258.459 89.7844C258.459 89.1334 258.204 88.5415 257.695 88.0089C257.198 87.4762 256.458 87.2158 255.476 87.2276C254.848 87.2276 254.304 87.3578 253.842 87.6183C253.38 87.8787 253.019 88.2279 252.759 88.6658C252.51 89.1038 252.386 89.601 252.386 90.1573C252.386 90.8794 252.593 91.6192 253.008 92.3768C253.422 93.1344 253.978 93.9393 254.677 94.7915C255.387 95.6438 256.174 96.5849 257.038 97.6147L274.456 117.199H265.614L251.037 101.379C250.208 100.456 249.338 99.4199 248.427 98.2717C247.515 97.1235 246.746 95.8687 246.118 94.5075C245.491 93.1344 245.177 91.6429 245.177 90.033C245.177 88.2219 245.603 86.5825 246.456 85.1147C247.308 83.6469 248.504 82.4809 250.042 81.6168C251.593 80.7409 253.398 80.3029 255.458 80.3029C257.447 80.3029 259.163 80.7113 260.607 81.5281C262.051 82.3448 263.164 83.4279 263.945 84.7773C264.726 86.1268 265.117 87.6064 265.117 89.2163C265.117 90.9208 264.697 92.4892 263.856 93.9215C263.016 95.342 261.826 96.6026 260.287 97.7035L252.812 103.048C252.019 103.616 251.398 104.226 250.948 104.877C250.498 105.516 250.273 106.214 250.273 106.972C250.273 107.753 250.457 108.434 250.824 109.014C251.202 109.594 251.735 110.05 252.422 110.381C253.108 110.712 253.913 110.878 254.836 110.878C256.067 110.878 257.299 110.588 258.53 110.008C259.761 109.416 260.885 108.588 261.903 107.522C262.921 106.445 263.738 105.173 264.353 103.705C264.969 102.225 265.277 100.604 265.277 98.8398H272.273C272.273 101.018 272.042 103.042 271.58 104.912C271.118 106.771 270.426 108.44 269.503 109.919C268.591 111.387 267.461 112.606 266.111 113.577C265.685 113.814 265.271 114.039 264.868 114.252C264.466 114.465 264.052 114.69 263.625 114.926C262.229 115.933 260.714 116.655 259.08 117.093C257.458 117.531 255.86 117.75 254.286 117.75ZM273.107 87.9734V80.8356H303.842V87.9734H292.816V117.199H284.151V87.9734H273.107ZM318.877 117.199V80.8356H333.898C336.621 80.8356 338.97 81.3683 340.947 82.4336C342.936 83.4871 344.469 84.9608 345.546 86.8548C346.623 88.7369 347.162 90.9267 347.162 93.4244C347.162 95.9338 346.611 98.1296 345.51 100.012C344.421 101.882 342.865 103.332 340.841 104.362C338.816 105.392 336.413 105.907 333.632 105.907H324.363V98.9819H331.998C333.324 98.9819 334.431 98.7511 335.318 98.2894C336.218 97.8278 336.899 97.1826 337.36 96.354C337.822 95.5136 338.053 94.537 338.053 93.4244C338.053 92.2998 337.822 91.3292 337.36 90.5124C336.899 89.6838 336.218 89.0446 335.318 88.5948C334.419 88.145 333.312 87.9201 331.998 87.9201H327.666V117.199H318.877ZM351.494 117.199V80.8356H366.515C369.238 80.8356 371.587 81.3268 373.564 82.3093C375.553 83.2799 377.086 84.6767 378.163 86.4996C379.24 88.3107 379.779 90.4592 379.779 92.945C379.779 95.4663 379.228 97.6088 378.127 99.3725C377.027 101.124 375.464 102.462 373.44 103.385C371.416 104.297 369.019 104.752 366.249 104.752H356.75V97.8278H364.615C365.941 97.8278 367.048 97.6561 367.936 97.3129C368.835 96.9577 369.516 96.4251 369.978 95.7148C370.439 94.9928 370.67 94.0695 370.67 92.945C370.67 91.8204 370.439 90.8912 369.978 90.1573C369.516 89.4116 368.835 88.8552 367.936 88.4883C367.036 88.1095 365.929 87.9201 364.615 87.9201H360.283V117.199H351.494ZM371.966 100.58L381.022 117.199H371.434L362.556 100.58H371.966ZM384.599 117.199V80.8356H409.955V87.9734H393.388V95.4308H408.658V102.586H393.388V110.061H409.955V117.199H384.599ZM415.459 80.8356H426.343L435.576 103.35H436.002L445.235 80.8356H456.119V117.199H447.561V94.8626H447.259L438.523 116.968H433.055L424.319 94.7383H424.017V117.199H415.459V80.8356ZM470.39 80.8356V117.199H461.601V80.8356H470.39ZM497.907 80.8356H506.679V104.291C506.679 107.002 506.033 109.363 504.743 111.375C503.453 113.376 501.654 114.926 499.345 116.027C497.037 117.116 494.356 117.661 491.302 117.661C488.213 117.661 485.514 117.116 483.206 116.027C480.897 114.926 479.104 113.376 477.826 111.375C476.547 109.363 475.908 107.002 475.908 104.291V80.8356H484.697V103.527C484.697 104.782 484.969 105.901 485.514 106.883C486.07 107.866 486.845 108.635 487.84 109.191C488.834 109.748 489.988 110.026 491.302 110.026C492.616 110.026 493.764 109.748 494.747 109.191C495.741 108.635 496.516 107.866 497.073 106.883C497.629 105.901 497.907 104.782 497.907 103.527V80.8356ZM512.187 80.8356H523.072L532.304 103.35H532.731L541.964 80.8356H552.848V117.199H544.29V94.8626H543.988L535.252 116.968H529.783L521.047 94.7383H520.746V117.199H512.187V80.8356Z" fill="#64AE33"/>
</g>
<defs>
<filter id="filter0_d_18_36" x="188.217" y="79.3029" width="368.631" height="47.7372" filterUnits="userSpaceOnUse" color-interpolation-filters="sRGB">
<feFlood flood-opacity="0" result="BackgroundImageFix"/>
<feColorMatrix in="SourceAlpha" type="matrix" values="0 0 0 0 0 0 0 0 0 0 0 0 0 0 0 0 0 0 127 0" result="hardAlpha"/>
<feOffset dy="3"/>
<feGaussianBlur stdDeviation="2"/>
<feComposite in2="hardAlpha" operator="out"/>
<feColorMatrix type="matrix" values="0 0 0 0 0 0 0 0 0 0 0 0 0 0 0 0 0 0 0.25 0"/>
<feBlend mode="normal" in2="BackgroundImageFix" result="effect1_dropShadow_18_36"/>
<feBlend mode="normal" in="SourceGraphic" in2="effect1_dropShadow_18_36" result="shape"/>
</filter>
</defs>
</svg>
