<svg width="907" height="332" viewBox="0 0 907 332" fill="none" xmlns="http://www.w3.org/2000/svg">
<rect width="907" height="332" fill="#F5F5F5"/>
<circle cx="164.5" cy="164.5" r="164.5" fill="#67AD33"/>
<circle cx="167" cy="161" r="104" fill="#F7F7F7"/>
<circle cx="258.5" cy="258.5" r="30.5" fill="#F7F7F7"/>
<circle cx="301.5" cy="301.5" r="30.5" fill="#67AD33"/>
<path d="M274.996 274.964V281.605H247.617V274.964H274.996ZM274.624 238.636V245.33H248.771V238.636H274.624ZM267.255 258.949V260.707L251.257 281.605H244.492V277.912L258.874 259.854L244.492 242.347V238.636H251.257L267.255 258.949Z" fill="#67AD33"/>
<path d="M307.146 292.727V299.119H289.941V292.727H307.146ZM293.545 286.193H302.228V311.424C302.228 311.957 302.311 312.389 302.477 312.72C302.654 313.04 302.909 313.271 303.24 313.413C303.571 313.543 303.968 313.608 304.43 313.608C304.761 313.608 305.11 313.578 305.477 313.519C305.856 313.448 306.14 313.389 306.33 313.342L307.643 319.609C307.229 319.728 306.643 319.876 305.886 320.053C305.14 320.231 304.246 320.343 303.205 320.391C301.169 320.485 299.423 320.249 297.967 319.68C296.522 319.1 295.416 318.201 294.646 316.982C293.889 315.762 293.522 314.229 293.545 312.383V286.193Z" fill="#F5F5F5"/>
<g filter="url(#filter0_d_0_1)">
<path d="M382.982 154.398H393.636L398.163 160.177L404.103 166.995L413.238 178.261H401.306L394.914 170.618L391.132 165.184L382.982 154.398ZM413.611 146.727C413.611 152.729 412.457 157.816 410.148 161.988C407.84 166.161 404.715 169.33 400.773 171.496C396.849 173.663 392.446 174.746 387.563 174.746C382.663 174.746 378.25 173.654 374.326 171.47C370.402 169.286 367.286 166.116 364.978 161.962C362.688 157.789 361.542 152.711 361.542 146.727C361.542 140.726 362.688 135.639 364.978 131.466C367.286 127.294 370.402 124.124 374.326 121.958C378.25 119.792 382.663 118.709 387.563 118.709C392.446 118.709 396.849 119.792 400.773 121.958C404.715 124.124 407.84 127.294 410.148 131.466C412.457 135.639 413.611 140.726 413.611 146.727ZM400.134 146.727C400.134 143.176 399.628 140.175 398.616 137.725C397.622 135.275 396.184 133.419 394.301 132.159C392.437 130.898 390.191 130.268 387.563 130.268C384.953 130.268 382.707 130.898 380.825 132.159C378.943 133.419 377.496 135.275 376.484 137.725C375.489 140.175 374.992 143.176 374.992 146.727C374.992 150.278 375.489 153.279 376.484 155.729C377.496 158.18 378.943 160.035 380.825 161.296C382.707 162.556 384.953 163.187 387.563 163.187C390.191 163.187 392.437 162.556 394.301 161.296C396.184 160.035 397.622 158.18 398.616 155.729C399.628 153.279 400.134 150.278 400.134 146.727ZM454.646 174.826C450.811 174.826 447.5 174.142 444.712 172.775C441.942 171.408 439.812 169.57 438.32 167.262C436.829 164.936 436.083 162.352 436.083 159.511C436.083 157.416 436.491 155.57 437.308 153.972C438.142 152.356 439.288 150.873 440.744 149.524C442.217 148.157 443.931 146.816 445.884 145.502L457.336 138.178C458.633 137.361 459.547 136.5 460.08 135.594C460.63 134.689 460.905 133.783 460.905 132.878C460.905 131.901 460.524 131.013 459.76 130.214C459.014 129.415 457.905 129.025 456.431 129.043C455.49 129.043 454.673 129.238 453.981 129.629C453.288 130.019 452.747 130.543 452.356 131.2C451.983 131.857 451.797 132.603 451.797 133.437C451.797 134.52 452.107 135.63 452.729 136.766C453.35 137.903 454.185 139.11 455.232 140.388C456.298 141.667 457.478 143.078 458.775 144.623L484.902 174H471.639L449.772 150.27C448.53 148.885 447.225 147.331 445.857 145.609C444.49 143.886 443.336 142.004 442.395 139.962C441.454 137.903 440.983 135.665 440.983 133.251C440.983 130.534 441.623 128.075 442.901 125.873C444.179 123.672 445.973 121.923 448.281 120.626C450.607 119.312 453.315 118.656 456.404 118.656C459.387 118.656 461.962 119.268 464.128 120.493C466.294 121.718 467.963 123.343 469.135 125.367C470.307 127.391 470.893 129.611 470.893 132.026C470.893 134.582 470.263 136.935 469.002 139.083C467.741 141.214 465.957 143.105 463.649 144.756L452.436 152.773C451.246 153.625 450.314 154.54 449.639 155.516C448.965 156.475 448.627 157.523 448.627 158.659C448.627 159.831 448.902 160.852 449.453 161.722C450.021 162.592 450.82 163.276 451.85 163.773C452.88 164.27 454.087 164.518 455.472 164.518C457.319 164.518 459.165 164.083 461.012 163.213C462.858 162.326 464.545 161.083 466.072 159.485C467.599 157.869 468.824 155.96 469.748 153.759C470.671 151.539 471.133 149.107 471.133 146.461H481.626C481.626 149.728 481.28 152.764 480.587 155.57C479.895 158.357 478.856 160.861 477.471 163.08C476.104 165.282 474.408 167.111 472.384 168.567C471.745 168.922 471.124 169.259 470.52 169.579C469.916 169.898 469.295 170.236 468.656 170.591C466.56 172.1 464.288 173.183 461.837 173.84C459.405 174.497 457.008 174.826 454.646 174.826ZM482.878 130.161V119.455H528.981V130.161H512.441V174H499.444V130.161H482.878ZM551.532 174V119.455H574.064C578.148 119.455 581.673 120.254 584.638 121.852C587.621 123.432 589.92 125.642 591.536 128.483C593.152 131.306 593.96 134.591 593.96 138.338C593.96 142.102 593.134 145.396 591.483 148.219C589.849 151.024 587.514 153.199 584.478 154.744C581.442 156.289 577.838 157.061 573.665 157.061H559.762V146.674H571.215C573.203 146.674 574.863 146.328 576.195 145.635C577.545 144.943 578.566 143.975 579.258 142.732C579.95 141.472 580.297 140.007 580.297 138.338C580.297 136.651 579.95 135.195 579.258 133.97C578.566 132.727 577.545 131.768 576.195 131.093C574.846 130.419 573.186 130.081 571.215 130.081H564.716V174H551.532ZM600.458 174V119.455H622.99C627.074 119.455 630.599 120.191 633.564 121.665C636.547 123.121 638.846 125.216 640.462 127.951C642.078 130.667 642.885 133.89 642.885 137.619C642.885 141.401 642.06 144.614 640.409 147.26C638.757 149.888 636.414 151.894 633.377 153.279C630.341 154.646 626.746 155.33 622.591 155.33H608.342V144.943H620.14C622.129 144.943 623.789 144.685 625.121 144.17C626.47 143.638 627.491 142.839 628.184 141.773C628.876 140.69 629.222 139.305 629.222 137.619C629.222 135.932 628.876 134.538 628.184 133.437C627.491 132.319 626.47 131.484 625.121 130.934C623.771 130.365 622.111 130.081 620.14 130.081H613.642V174H600.458ZM631.167 149.071L644.75 174H630.368L617.051 149.071H631.167ZM650.116 174V119.455H688.149V130.161H663.3V141.347H686.205V152.081H663.3V163.293H688.149V174H650.116ZM696.406 119.455H712.732L726.581 153.226H727.221L741.07 119.455H757.396V174H744.559V140.495H744.106L731.002 173.654H722.799L709.696 140.309H709.243V174H696.406V119.455ZM778.803 119.455V174H765.619V119.455H778.803ZM820.078 119.455H833.235V154.637C833.235 158.703 832.268 162.246 830.332 165.264C828.397 168.265 825.698 170.591 822.236 172.242C818.773 173.876 814.752 174.692 810.171 174.692C805.536 174.692 801.488 173.876 798.026 172.242C794.563 170.591 791.873 168.265 789.956 165.264C788.038 162.246 787.079 158.703 787.079 154.637V119.455H800.263V153.492C800.263 155.374 800.671 157.052 801.488 158.526C802.323 160 803.486 161.154 804.977 161.988C806.469 162.823 808.2 163.24 810.171 163.24C812.142 163.24 813.864 162.823 815.338 161.988C816.829 161.154 817.992 160 818.827 158.526C819.661 157.052 820.078 155.374 820.078 153.492V119.455ZM841.498 119.455H857.825L871.674 153.226H872.313L886.163 119.455H902.489V174H889.652V140.495H889.199L876.095 173.654H867.892L854.788 140.309H854.336V174H841.498V119.455Z" fill="#64AE33"/>
</g>
<defs>
<filter id="filter0_d_0_1" x="357.542" y="117.656" width="548.947" height="67.6058" filterUnits="userSpaceOnUse" color-interpolation-filters="sRGB">
<feFlood flood-opacity="0" result="BackgroundImageFix"/>
<feColorMatrix in="SourceAlpha" type="matrix" values="0 0 0 0 0 0 0 0 0 0 0 0 0 0 0 0 0 0 127 0" result="hardAlpha"/>
<feOffset dy="3"/>
<feGaussianBlur stdDeviation="2"/>
<feComposite in2="hardAlpha" operator="out"/>
<feColorMatrix type="matrix" values="0 0 0 0 0 0 0 0 0 0 0 0 0 0 0 0 0 0 0.25 0"/>
<feBlend mode="normal" in2="BackgroundImageFix" result="effect1_dropShadow_0_1"/>
<feBlend mode="normal" in="SourceGraphic" in2="effect1_dropShadow_0_1" result="shape"/>
</filter>
</defs>
</svg>
